# xmcd CD database file
#
# Track frame offsets:
#	150
#	13381
#	25824
#	36660
#	48901
#	61922
#	74078
#	84894
#	97264
#	110177
#	122477
#	134309
#	146384
#	157904
#	170309
#	183334
#	196707
#	210200
#	221693
#	234036
#	246878
#	260025
#
# Disc length: 3636 seconds
#
# Revision: 0
# Processed by: cddbd v1.5.1PL2 Copyright (c) Steve Scherf et al.
# Submitted via: CDex 1.50
#
DISCID=370e3216
DTITLE=Hank Williams - Settin' the Woods on Fire [CD1]
DYEAR=2005
DGENRE=Country
TTITLE0=Hey Good Lookin'
TTITLE1=I Could Never Be Ashamed of You
TTITLE2=Why Don't You Love Me
TTITLE3=I'm Sorry for You My Friend
TTITLE4=Jambalaya (On the Bayou)
TTITLE5=My Love for You (Has Turned to Hate)
TTITLE6=Moanin' the Blues
TTITLE7=Honky Tonkin'
TTITLE8=Pictures from Life's Other Side
TTITLE9=Fly Trouble
TTITLE10=I'll Be a Bachelor 'Til I Die
TTITLE11=Just Waitin'
TTITLE12=My Bucket's Got a Hole in It
TTITLE13=I Won't Be Home No More
TTITLE14=On the Banks of the Old Pontchartrain
TTITLE15=You're Gonna Change (Or I'm Gonna Leave)
TTITLE16=Too Many Parties and Too Many Pals
TTITLE17=Window Shopping
TTITLE18=Lovesick Blues
TTITLE19=I Can't Get You Off My Mind
TTITLE20=Wedding Bells
TTITLE21=I'm a Long Gone Daddy
EXTD=YEAR: 2005
EXTT0=
EXTT1=
EXTT2=
EXTT3=
EXTT4=
EXTT5=
EXTT6=
EXTT7=
EXTT8=
EXTT9=
EXTT10=
EXTT11=
EXTT12=
EXTT13=
EXTT14=
EXTT15=
EXTT16=
EXTT17=
EXTT18=
EXTT19=
EXTT20=
EXTT21=
PLAYORDER=
